PathFileType	4	(X/Y/Z)	C:/Users/opensim2020/Desktop/walking_exp_matlab/subject03_walking08_straight_04.trc																																																																																																																																																							
DataRate	CameraRate	NumFrames	NumMarkers	Units	OrigDataRate	OrigDataStartFrame	OrigNumFrames																																																																																																																																																			
100	100	4	51	mm	100	3427	303																																																																																																																																																			
Frame#	Time	LFHD			RFHD			LBHD			RBHD			C7			T10			CLAV			STRN			RBAK			LSHO			LUPA			LELB			LFRM			LWRA			LWRB			LFIN			RSHO			RUPA			RELB			RFRM			RWRA			RWRB			RFIN			LASI			RASI			LPSI			RPSI			LTHI			LKNE			LTIB			LANK			LHEE			LTOE			RTHI			RKNE			RTIB			RANK			RHEE			RTOE			*39			*40			*41			*42			*43			*44			*45			*46			*47			*48			*49			*50		
		X1	Y1	Z1	X2	Y2	Z2	X3	Y3	Z3	X4	Y4	Z4	X5	Y5	Z5	X6	Y6	Z6	X7	Y7	Z7	X8	Y8	Z8	X9	Y9	Z9	X10	Y10	Z10	X11	Y11	Z11	X12	Y12	Z12	X13	Y13	Z13	X14	Y14	Z14	X15	Y15	Z15	X16	Y16	Z16	X17	Y17	Z17	X18	Y18	Z18	X19	Y19	Z19	X20	Y20	Z20	X21	Y21	Z21	X22	Y22	Z22	X23	Y23	Z23	X24	Y24	Z24	X25	Y25	Z25	X26	Y26	Z26	X27	Y27	Z27	X28	Y28	Z28	X29	Y29	Z29	X30	Y30	Z30	X31	Y31	Z31	X32	Y32	Z32	X33	Y33	Z33	X34	Y34	Z34	X35	Y35	Z35	X36	Y36	Z36	X37	Y37	Z37	X38	Y38	Z38	X39	Y39	Z39	X40	Y40	Z40	X41	Y41	Z41	X42	Y42	Z42	X43	Y43	Z43	X44	Y44	Z44	X45	Y45	Z45	X46	Y46	Z46	X47	Y47	Z47	X48	Y48	Z48	X49	Y49	Z49	X50	Y50	Z50	X51	Y51	Z51
																																																																																																																																																										
76	0.75	-688.25854	1604.69092	-1490.6261	-713.23627	1609.77319	-1360.00842	-818.76208	1572.82776	-1510.99902	-838.50916	1577.22437	-1381.73267	-872.68439	1413.37305	-1457.9043	-913.82037	1098.7821	-1460.12134	-755.21588	1330.83679	-1440.73096	-716.0011	1165.77283	-1444.4408	-944.10455	1235.51831	-1372.9502	-777.1936	1368.02368	-1600.81592	-758.76471	1174.14478	-1672.50671	-728.04016	1055.17944	-1683.04822	-661.48163	945.48145	-1667.45764	-605.12628	848.16907	-1621.30078	-621.95813	838.78851	-1673.42297	-573.34235	773.49481	-1652.92151	-823.51166	1353.42944	-1288.3927	-842.1095	1129.10071	-1222.58044	-833.01086	1016.32599	-1209.52368	-820.29883	879.48511	-1209.38672	-786.73395	784.46625	-1242.38672	-825.63257	779.12756	-1203.85889	-803.81592	707.68134	-1214.21729	-747.12103	929.08929	-1570.60828	-754.54211	930.83264	-1330.69739	-909.82727	959.0191	-1522.10254	-914.10364	963.44226	-1373.50146	-854.35321	637.59802	-1607.22363	-896.71008	463.53329	-1575.99731	-1016.05719	302.11938	-1576.255	-1111.23999	112.68382	-1536.46362	-1161.02551	93.73712	-1499.15503	-979.66583	33.70969	-1509.27734	-769.90869	640.57397	-1289.9248	-706.93298	471.01651	-1326.21423	-703.7395	284.73801	-1321.58289	-665.01422	71.4858	-1365.22131	-699.72711	39.00464	-1421.47498	-520.1236	39.47425	-1370.85522	NaN	NaN	NaN	NaN	NaN	NaN	NaN	NaN	NaN	NaN	NaN	NaN	NaN	NaN	NaN	NaN	NaN	NaN	NaN	NaN	NaN	NaN	NaN	NaN	NaN	NaN	NaN	NaN	NaN	NaN	NaN	NaN	NaN	NaN	NaN	NaN
77	0.76	-680.27496	1606.0918	-1489.18787	-705.03168	1611.20361	-1358.58325	-810.75775	1574.0365	-1509.3446	-830.30579	1578.4314	-1380.07239	-864.29816	1414.49902	-1456.06042	-904.98901	1099.91174	-1459.15686	-746.71289	1332.23352	-1439.28064	-707.1861	1167.22815	-1443.19128	-935.23999	1236.51892	-1371.15442	-769.05634	1369.52869	-1599.30603	-752.1178	1175.14758	-1670.44678	-722.55804	1055.66772	-1680.63733	-658.31976	944.45874	-1665.94409	-603.86188	845.70087	-1620.62268	-621.29156	836.87665	-1672.6842	-574.09106	770.36658	-1652.7489	-814.86823	1354.63965	-1286.81885	-832.33405	1130.22046	-1221.15894	-822.86737	1017.42017	-1208.34985	-810.41943	880.65912	-1207.96838	-777.24078	785.57208	-1240.92505	-815.6579	780.23688	-1202.43396	-794.2027	708.75806	-1212.53516	-737.62634	929.81061	-1569.29504	-745.01471	933.10065	-1329.52551	-900.3479	959.82367	-1521.22827	-904.87146	965.40894	-1372.65771	-844.86591	638.15021	-1606.56042	-887.77875	464.48865	-1576.51782	-1009.5174	304.40112	-1576.4137	-1107.86707	116.56569	-1536.63123	-1158.15967	99.2962	-1499.35095	-979.2077	33.67739	-1509.26428	-762.32727	642.31531	-1288.60608	-700.67584	472.08157	-1325.47375	-700.09998	285.3559	-1321.05725	-664.61346	71.64746	-1365.28186	-699.79193	39.01616	-1421.15442	-519.47955	38.79808	-1372.67053	NaN	NaN	NaN	NaN	NaN	NaN	NaN	NaN	NaN	NaN	NaN	NaN	NaN	NaN	NaN	NaN	NaN	NaN	NaN	NaN	NaN	NaN	NaN	NaN	NaN	NaN	NaN	NaN	NaN	NaN	NaN	NaN	NaN	NaN	NaN	NaN
78	0.77	-672.2309	1607.60254	-1487.76855	-696.74475	1612.65894	-1357.09314	-802.71771	1575.39001	-1507.63623	-822.01398	1579.74353	-1378.31604	-856.06604	1415.7948	-1454.29871	-896.17621	1101.14001	-1458.22595	-738.20697	1333.82983	-1437.85938	-698.2851	1168.87402	-1442.01587	-926.3739	1237.66736	-1369.32495	-761.02313	1371.25525	-1597.75342	-745.44708	1176.43835	-1668.35059	-717.1908	1056.48621	-1678.14734	-655.27466	943.71979	-1664.46704	-602.94672	843.28943	-1620.03687	-620.93976	835.18036	-1672.10693	-575.22833	767.36908	-1652.78748	-806.2254	1356.13586	-1285.36328	-822.53156	1131.55627	-1219.71716	-812.71259	1018.88898	-1207.03137	-800.46521	882.07538	-1206.47473	-767.39941	786.91986	-1239.50952	-805.77295	781.71301	-1200.68506	-784.35461	710.16193	-1210.81909	-728.23315	930.7525	-1567.82129	-735.74658	935.45697	-1328.18774	-890.84045	960.76251	-1520.29211	-895.63983	967.36298	-1371.81897	-835.14069	638.81238	-1606.08557	-877.12378	464.33627	-1576.31018	-1002.237	306.62393	-1576.4447	-1104.32288	121.15957	-1537.06934	-1154.80139	105.32598	-1499.45874	-978.75403	33.66925	-1509.17798	-754.34119	644.17999	-1287.23352	-694.71637	473.2056	-1324.8147	-696.63525	286.02979	-1320.6842	-664.14722	71.8708	-1365.41479	-699.85083	39.04017	-1421.02307	-519.26917	38.43748	-1373.06323	NaN	NaN	NaN	NaN	NaN	NaN	NaN	NaN	NaN	NaN	NaN	NaN	NaN	NaN	NaN	NaN	NaN	NaN	NaN	NaN	NaN	NaN	NaN	NaN	NaN	NaN	NaN	NaN	NaN	NaN	NaN	NaN	NaN	NaN	NaN	NaN
79	0.78	-664.216	1609.19263	-1486.30151	-688.58618	1614.17566	-1355.60107	-794.7533	1576.87244	-1505.98022	-813.86664	1581.17957	-1376.67065	-847.81561	1417.14587	-1452.52197	-887.4165	1102.43933	-1457.12305	-729.72888	1335.43567	-1436.48914	-689.59265	1170.52173	-1440.78162	-917.51758	1238.96643	-1367.41895	-752.99078	1373.14392	-1596.24353	-738.75098	1177.92944	-1666.29675	-711.84637	1057.53186	-1675.76721	-652.3996	943.22418	-1663.06714	-602.18268	841.17181	-1619.77319	-620.83185	833.8399	-1671.71985	-576.96283	764.62708	-1653.03723	-797.17761	1357.72974	-1283.73425	-812.66425	1133.04443	-1218.24597	-802.4563	1020.4071	-1205.77075	-790.20679	883.72595	-1204.92358	-757.49329	788.30627	-1237.83386	-795.54175	783.31427	-1198.87476	-774.36945	711.60919	-1209.06934	-718.7702	931.86951	-1566.21619	-726.35107	937.78076	-1326.7074	-881.34271	961.97076	-1519.36462	-886.38544	969.24707	-1370.94128	-824.86279	639.41486	-1605.52515	-866.39459	464.77475	-1577.06189	-994.31775	309.04474	-1576.65271	-1099.90955	125.85103	-1537.11072	-1150.7804	111.87466	-1499.48938	-978.31525	33.79222	-1509.0824	-746.2179	645.83844	-1286.08386	-689.35291	474.19846	-1324.05933	-693.70038	286.58905	-1320.03235	-664.09241	72.03973	-1365.4635	-699.85181	39.08875	-1420.96265	-519.24927	38.1753	-1372.74561	NaN	NaN	NaN	NaN	NaN	NaN	NaN	NaN	NaN	NaN	NaN	NaN	NaN	NaN	NaN	NaN	NaN	NaN	NaN	NaN	NaN	NaN	NaN	NaN	NaN	NaN	NaN	NaN	NaN	NaN	NaN	NaN	NaN	NaN	NaN	NaN
